<svg width="295" height="31" viewBox="0 0 295 31" fill="none" xmlns="http://www.w3.org/2000/svg">
<path d="M19.584 1.872V5.94H12.888V27H7.848V5.94H1.152V1.872H19.584ZM28.3013 10.152C28.9493 9.096 29.7893 8.268 30.8213 7.668C31.8773 7.068 33.0773 6.768 34.4213 6.768V12.06H33.0893C31.5053 12.06 30.3053 12.432 29.4893 13.176C28.6973 13.92 28.3013 15.216 28.3013 17.064V27H23.2613V7.056H28.3013V10.152ZM36.52 16.956C36.52 14.94 36.916 13.152 37.708 11.592C38.524 10.032 39.616 8.832 40.984 7.992C42.376 7.152 43.924 6.732 45.628 6.732C47.116 6.732 48.412 7.032 49.516 7.632C50.644 8.232 51.544 8.988 52.216 9.9V7.056H57.292V27H52.216V24.084C51.568 25.02 50.668 25.8 49.516 26.424C48.388 27.024 47.08 27.324 45.592 27.324C43.912 27.324 42.376 26.892 40.984 26.028C39.616 25.164 38.524 23.952 37.708 22.392C36.916 20.808 36.52 18.996 36.52 16.956ZM52.216 17.028C52.216 15.804 51.976 14.76 51.496 13.896C51.016 13.008 50.368 12.336 49.552 11.88C48.736 11.4 47.86 11.16 46.924 11.16C45.988 11.16 45.124 11.388 44.332 11.844C43.54 12.3 42.892 12.972 42.388 13.86C41.908 14.724 41.668 15.756 41.668 16.956C41.668 18.156 41.908 19.212 42.388 20.124C42.892 21.012 43.54 21.696 44.332 22.176C45.148 22.656 46.012 22.896 46.924 22.896C47.86 22.896 48.736 22.668 49.552 22.212C50.368 21.732 51.016 21.06 51.496 20.196C51.976 19.308 52.216 18.252 52.216 17.028ZM73.2665 6.768C75.6425 6.768 77.5625 7.524 79.0265 9.036C80.4905 10.524 81.2225 12.612 81.2225 15.3V27H76.1825V15.984C76.1825 14.4 75.7865 13.188 74.9945 12.348C74.2025 11.484 73.1225 11.052 71.7545 11.052C70.3625 11.052 69.2585 11.484 68.4425 12.348C67.6505 13.188 67.2545 14.4 67.2545 15.984V27H62.2145V7.056H67.2545V9.54C67.9265 8.676 68.7785 8.004 69.8105 7.524C70.8665 7.02 72.0185 6.768 73.2665 6.768ZM93.6473 27.324C92.0153 27.324 90.5513 27.036 89.2553 26.46C87.9593 25.86 86.9273 25.056 86.1593 24.048C85.4153 23.04 85.0073 21.924 84.9353 20.7H90.0113C90.1073 21.468 90.4793 22.104 91.1273 22.608C91.7993 23.112 92.6273 23.364 93.6113 23.364C94.5713 23.364 95.3153 23.172 95.8433 22.788C96.3953 22.404 96.6713 21.912 96.6713 21.312C96.6713 20.664 96.3353 20.184 95.6633 19.872C95.0153 19.536 93.9713 19.176 92.5312 18.792C91.0433 18.432 89.8193 18.06 88.8593 17.676C87.9233 17.292 87.1073 16.704 86.4113 15.912C85.7393 15.12 85.4033 14.052 85.4033 12.708C85.4033 11.604 85.7153 10.596 86.3393 9.684C86.9873 8.772 87.8993 8.052 89.0753 7.524C90.2753 6.996 91.6793 6.732 93.2873 6.732C95.6633 6.732 97.5593 7.332 98.9753 8.532C100.391 9.708 101.171 11.304 101.315 13.32H96.4913C96.4193 12.528 96.0833 11.904 95.4833 11.448C94.9073 10.968 94.1273 10.728 93.1433 10.728C92.2313 10.728 91.5233 10.896 91.0193 11.232C90.5393 11.568 90.2993 12.036 90.2993 12.636C90.2993 13.308 90.6353 13.824 91.3073 14.184C91.9793 14.52 93.0233 14.868 94.4393 15.228C95.8793 15.588 97.0673 15.96 98.0033 16.344C98.9393 16.728 99.7433 17.328 100.415 18.144C101.111 18.936 101.471 19.992 101.495 21.312C101.495 22.464 101.171 23.496 100.523 24.408C99.8993 25.32 98.9873 26.04 97.7873 26.568C96.6113 27.072 95.2313 27.324 93.6473 27.324ZM110.672 0.36V27H105.632V0.36H110.672ZM114.356 16.956C114.356 14.94 114.752 13.152 115.544 11.592C116.36 10.032 117.452 8.832 118.82 7.992C120.212 7.152 121.76 6.732 123.464 6.732C124.952 6.732 126.248 7.032 127.352 7.632C128.48 8.232 129.38 8.988 130.052 9.9V7.056H135.128V27H130.052V24.084C129.404 25.02 128.504 25.8 127.352 26.424C126.224 27.024 124.916 27.324 123.428 27.324C121.748 27.324 120.212 26.892 118.82 26.028C117.452 25.164 116.36 23.952 115.544 22.392C114.752 20.808 114.356 18.996 114.356 16.956ZM130.052 17.028C130.052 15.804 129.812 14.76 129.332 13.896C128.852 13.008 128.204 12.336 127.388 11.88C126.572 11.4 125.696 11.16 124.76 11.16C123.824 11.16 122.96 11.388 122.168 11.844C121.376 12.3 120.728 12.972 120.224 13.86C119.744 14.724 119.504 15.756 119.504 16.956C119.504 18.156 119.744 19.212 120.224 20.124C120.728 21.012 121.376 21.696 122.168 22.176C122.984 22.656 123.848 22.896 124.76 22.896C125.696 22.896 126.572 22.668 127.388 22.212C128.204 21.732 128.852 21.06 129.332 20.196C129.812 19.308 130.052 18.252 130.052 17.028ZM151.102 6.768C153.478 6.768 155.398 7.524 156.862 9.036C158.326 10.524 159.058 12.612 159.058 15.3V27H154.018V15.984C154.018 14.4 153.622 13.188 152.83 12.348C152.038 11.484 150.958 11.052 149.59 11.052C148.198 11.052 147.094 11.484 146.278 12.348C145.486 13.188 145.09 14.4 145.09 15.984V27H140.05V7.056H145.09V9.54C145.762 8.676 146.614 8.004 147.646 7.524C148.702 7.02 149.854 6.768 151.102 6.768Z" fill="#2B2B39"/>
<path d="M163.023 14.4C163.455 11.928 164.403 9.72 165.867 7.776C167.331 5.808 169.131 4.284 171.267 3.204C173.403 2.1 175.671 1.548 178.071 1.548C180.903 1.548 183.231 2.244 185.055 3.636C186.903 5.004 188.019 6.936 188.403 9.432H182.607C182.223 8.376 181.575 7.572 180.663 7.02C179.751 6.468 178.623 6.192 177.279 6.192C175.791 6.192 174.411 6.528 173.139 7.2C171.867 7.872 170.799 8.832 169.935 10.08C169.071 11.328 168.495 12.768 168.207 14.4C168.087 14.976 168.027 15.636 168.027 16.38C168.027 18.348 168.603 19.896 169.755 21.024C170.931 22.128 172.539 22.68 174.579 22.68C176.475 22.68 178.131 22.164 179.547 21.132C180.987 20.1 182.055 18.672 182.751 16.848H174.111L174.759 13.032H188.367L187.575 17.424C186.927 19.176 185.919 20.796 184.551 22.284C183.183 23.772 181.551 24.972 179.655 25.884C177.759 26.772 175.731 27.216 173.571 27.216C171.435 27.216 169.551 26.784 167.919 25.92C166.311 25.056 165.051 23.856 164.139 22.32C163.251 20.76 162.807 18.96 162.807 16.92C162.807 16.104 162.879 15.264 163.023 14.4ZM198.54 27.324C196.836 27.324 195.324 26.976 194.004 26.28C192.708 25.584 191.7 24.6 190.98 23.328C190.26 22.056 189.9 20.592 189.9 18.936C189.9 16.68 190.428 14.628 191.484 12.78C192.564 10.908 194.028 9.432 195.876 8.352C197.748 7.272 199.824 6.732 202.104 6.732C203.808 6.732 205.32 7.092 206.64 7.812C207.984 8.508 209.016 9.492 209.736 10.764C210.48 12.036 210.852 13.5 210.852 15.156C210.852 17.436 210.312 19.5 209.232 21.348C208.152 23.196 206.664 24.66 204.768 25.74C202.896 26.796 200.82 27.324 198.54 27.324ZM199.224 23.004C200.424 23.004 201.516 22.656 202.5 21.96C203.484 21.264 204.252 20.34 204.804 19.188C205.356 18.036 205.632 16.824 205.632 15.552C205.632 14.112 205.224 13.008 204.408 12.24C203.616 11.448 202.608 11.052 201.384 11.052C200.16 11.052 199.068 11.4 198.108 12.096C197.172 12.792 196.44 13.728 195.912 14.904C195.384 16.056 195.12 17.28 195.12 18.576C195.12 19.992 195.492 21.084 196.236 21.852C197.004 22.62 198 23.004 199.224 23.004Z" fill="#8338EC"/>
</svg>
