<svg width="24" height="30" viewBox="0 0 24 30" fill="none" xmlns="http://www.w3.org/2000/svg">
<path d="M12 0C16.965 0 21 3.75855 21 8.40727C21 14.7092 12 24.0208 12 24.0208C12 24.0208 3 14.7092 3 8.40727C3 3.75855 7.035 0 12 0ZM12 5.65195C11.2044 5.65195 10.4413 5.94968 9.87868 6.47966C9.31607 7.00963 9 7.72843 9 8.47792C9 9.22742 9.31607 9.94621 9.87868 10.4762C10.4413 11.0062 11.2044 11.3039 12 11.3039C12.7956 11.3039 13.5587 11.0062 14.1213 10.4762C14.6839 9.94621 15 9.22742 15 8.47792C15 7.72843 14.6839 7.00963 14.1213 6.47966C13.5587 5.94968 12.7956 5.65195 12 5.65195ZM24 24.0208C24 27.1435 18.63 29.6727 12 29.6727C5.37 29.6727 0 27.1435 0 24.0208C0 22.198 1.83 20.5731 4.665 19.5416L5.625 20.8274C4.005 21.4633 3 22.3393 3 23.3143C3 25.2642 7.035 26.8468 12 26.8468C16.965 26.8468 21 25.2642 21 23.3143C21 22.3393 19.995 21.4633 18.375 20.8274L19.335 19.5416C22.17 20.5731 24 22.198 24 24.0208Z" fill="#8338EC"/>
<ellipse cx="12.0252" cy="8.57479" rx="5.56364" ry="5.08675" fill="white"/>
<path d="M12.2581 9.48616L11.578 8.86711L11.586 8.85971C12.052 8.38125 12.384 7.83127 12.5795 7.24922H13.364V6.75596H11.4896V6.2627H10.9541V6.75596H9.07972V7.24922H12.0707C11.8913 7.72275 11.6075 8.17408 11.2219 8.56869C10.9728 8.31466 10.7667 8.03597 10.6033 7.74248H10.0678C10.2633 8.14449 10.531 8.5243 10.8657 8.86711L9.5028 10.1052L9.88303 10.4554L11.2219 9.22226L12.0546 9.98928L12.2581 9.48616ZM13.7657 8.23574H13.2301L12.0252 11.1953H12.5607L12.8606 10.4554H14.1325L14.4351 11.1953H14.9706L13.7657 8.23574ZM13.0641 9.96215L13.4979 8.89424L13.9317 9.96215H13.0641Z" fill="#8338EC"/>
</svg>
