<svg width="55" height="68" viewBox="0 0 55 68" fill="none" xmlns="http://www.w3.org/2000/svg">
<path d="M27.5 0C38.8781 0 48.125 8.61333 48.125 19.2667C48.125 33.7086 27.5 55.0476 27.5 55.0476C27.5 55.0476 6.875 33.7086 6.875 19.2667C6.875 8.61333 16.1219 0 27.5 0ZM27.5 12.9524C25.6766 12.9524 23.928 13.6347 22.6386 14.8492C21.3493 16.0637 20.625 17.711 20.625 19.4286C20.625 21.1462 21.3493 22.7934 22.6386 24.0079C23.928 25.2224 25.6766 25.9048 27.5 25.9048C29.3234 25.9048 31.072 25.2224 32.3614 24.0079C33.6507 22.7934 34.375 21.1462 34.375 19.4286C34.375 17.711 33.6507 16.0637 32.3614 14.8492C31.072 13.6347 29.3234 12.9524 27.5 12.9524ZM55 55.0476C55 62.2038 42.6937 68 27.5 68C12.3063 68 0 62.2038 0 55.0476C0 50.8705 4.19375 47.1467 10.6906 44.7829L12.8906 47.7295C9.17812 49.1867 6.875 51.1943 6.875 53.4286C6.875 57.8971 16.1219 61.5238 27.5 61.5238C38.8781 61.5238 48.125 57.8971 48.125 53.4286C48.125 51.1943 45.8219 49.1867 42.1094 47.7295L44.3094 44.7829C50.8062 47.1467 55 50.8705 55 55.0476Z" fill="url(#paint0_linear_220_5388)"/>
<ellipse cx="27.5577" cy="19.6506" rx="12.75" ry="11.6571" fill="url(#paint1_linear_220_5388)"/>
<path d="M28.0915 21.7389L26.5329 20.3203L26.5513 20.3033C27.619 19.2068 28.38 17.9464 28.8279 16.6126H30.6259V15.4822H26.3304V14.3518H25.1031V15.4822H20.8077V16.6126H27.662C27.2509 17.6978 26.6004 18.7321 25.7168 19.6364C25.1461 19.0542 24.6736 18.4156 24.2993 17.743H23.072C23.52 18.6642 24.1336 19.5346 24.9006 20.3203L21.7772 23.1575L22.6486 23.9601L25.7168 21.1341L27.6252 22.8919L28.0915 21.7389ZM31.5463 18.8734H30.319L27.5577 25.6557H28.785L29.4722 23.9601H32.387L33.0804 25.6557H34.3077L31.5463 18.8734ZM29.9386 22.8297L30.9327 20.3824L31.9268 22.8297H29.9386Z" fill="url(#paint2_linear_220_5388)"/>
<defs>
<linearGradient id="paint0_linear_220_5388" x1="-6.11111" y1="73.3845" x2="93.4556" y2="-49.346" gradientUnits="userSpaceOnUse">
<stop stop-color="#8338EC"/>
<stop offset="1" stop-color="white"/>
</linearGradient>
<linearGradient id="paint1_linear_220_5388" x1="0.470075" y1="51.8465" x2="59.1445" y2="-14.7081" gradientUnits="userSpaceOnUse">
<stop stop-color="#8338EC"/>
<stop offset="1" stop-color="white"/>
</linearGradient>
<linearGradient id="paint2_linear_220_5388" x1="-12.5673" y1="57.4479" x2="16.1964" y2="27.2803" gradientUnits="userSpaceOnUse">
<stop stop-color="#8338EC"/>
<stop offset="1" stop-color="white"/>
</linearGradient>
</defs>
</svg>
